<?xml version="1.0" encoding="utf-8"?>
<!-- Generator: Adobe Illustrator 23.0.2, SVG Export Plug-In . SVG Version: 6.00 Build 0)  -->
<svg version="1.1" id="Layer_1" xmlns="http://www.w3.org/2000/svg" xmlns:xlink="http://www.w3.org/1999/xlink" x="0px" y="0px"
	 viewBox="0 0 960 960" style="enable-background:new 0 0 960 960;" xml:space="preserve">
<style type="text/css">
	.st0{fill:#EDEDED;}
</style>
<g>
	<path class="st0" d="M480,165.16c-98.85,0-179.28,80.42-179.28,179.28S381.15,523.72,480,523.72s179.28-80.42,179.28-179.28
		S578.85,165.16,480,165.16z M480,495.48c-83.29,0-151.04-67.76-151.04-151.04S396.71,193.39,480,193.39s151.04,67.76,151.04,151.04
		S563.29,495.48,480,495.48z"/>
	<path class="st0" d="M480,131.46c7.8,0,14.12-6.32,14.12-14.12V14.12C494.12,6.32,487.8,0,480,0s-14.12,6.32-14.12,14.12v103.23
		C465.88,125.14,472.2,131.46,480,131.46z"/>
	<path class="st0" d="M480,557.42c-7.8,0-14.12,6.32-14.12,14.12v103.23c0,7.8,6.32,14.12,14.12,14.12s14.12-6.32,14.12-14.12
		V571.53C494.12,563.74,487.8,557.42,480,557.42z"/>
	<path class="st0" d="M267.02,344.44c0-7.8-6.32-14.12-14.12-14.12H149.68c-7.8,0-14.12,6.32-14.12,14.12
		c0,7.8,6.32,14.12,14.12,14.12H252.9C260.7,358.55,267.02,352.24,267.02,344.44z"/>
	<path class="st0" d="M810.32,330.32H707.1c-7.8,0-14.12,6.32-14.12,14.12c0,7.8,6.32,14.12,14.12,14.12h103.23
		c7.8,0,14.12-6.32,14.12-14.12C824.44,336.64,818.12,330.32,810.32,330.32z"/>
	<path class="st0" d="M309.44,193.84c2.76,2.76,6.37,4.14,9.98,4.14c3.61,0,7.22-1.38,9.98-4.14c5.51-5.51,5.51-14.45,0-19.96
		l-72.99-72.99c-5.51-5.51-14.45-5.51-19.96,0c-5.51,5.51-5.51,14.45,0,19.96L309.44,193.84z"/>
	<path class="st0" d="M650.56,495.04c-5.51-5.51-14.45-5.51-19.96,0c-5.51,5.51-5.51,14.45,0,19.96l72.99,72.99
		c2.76,2.76,6.37,4.14,9.98,4.14s7.22-1.38,9.98-4.14c5.51-5.51,5.51-14.45,0-19.96L650.56,495.04z"/>
	<path class="st0" d="M309.44,495.04l-72.99,72.99c-5.51,5.51-5.51,14.45,0,19.96c2.76,2.76,6.37,4.14,9.98,4.14
		s7.22-1.38,9.98-4.14L329.4,515c5.51-5.51,5.51-14.45,0-19.96C323.89,489.52,314.95,489.52,309.44,495.04z"/>
	<path class="st0" d="M640.58,197.97c3.61,0,7.22-1.38,9.98-4.14l72.99-72.99c5.51-5.51,5.51-14.45,0-19.96
		c-5.51-5.51-14.45-5.51-19.96,0l-72.99,72.99c-5.51,5.51-5.51,14.45,0,19.96C633.36,196.59,636.97,197.97,640.58,197.97z"/>
</g>
</svg>
