<?xml version="1.0" encoding="utf-8"?>
<!-- Generator: Adobe Illustrator 23.0.2, SVG Export Plug-In . SVG Version: 6.00 Build 0)  -->
<svg version="1.1" id="Layer_1" xmlns="http://www.w3.org/2000/svg" xmlns:xlink="http://www.w3.org/1999/xlink" x="0px" y="0px"
	 viewBox="0 0 961.78 666.69" style="enable-background:new 0 0 961.78 666.69;" xml:space="preserve">
<style type="text/css">
	.st0{fill:#EDEDED;}
</style>
<g>
	<path class="st0" d="M739.09,394.78c8.51-2.48,16.78-5.73,24.63-9.79c46.33-23.95,75.1-71.19,75.1-123.3
		c0-76.49-62.23-138.73-138.73-138.73c-34.19,0-67.04,12.55-92.49,35.33c-5.62,5.03-6.1,13.67-1.07,19.29
		c5.03,5.62,13.67,6.1,19.29,1.07c20.43-18.29,46.81-28.36,74.26-28.36c61.43,0,111.4,49.97,111.4,111.4
		c0,41.85-23.12,79.8-60.33,99.03c-15.37,7.94-31.97,12.06-49.36,12.32c-8.8-56.27-36.23-107.95-78.5-147.04
		c-47.07-43.54-108.33-67.52-172.48-67.52c-93.74,0-180.66,52.62-224.49,134.98c-12.43-2.54-25.11-3.82-37.81-3.82
		C84.57,289.63,0,374.2,0,478.16s84.57,188.53,188.53,188.53h480.89c1.17,0,2.32-0.06,3.47-0.09c0.29,0.02,0.58,0.09,0.87,0.09
		c77.45,0,140.46-63.01,140.46-140.46c0-0.73-0.04-1.45-0.06-2.17c0.01-0.73,0.06-1.45,0.06-2.17
		C814.24,467.37,784.47,419.49,739.09,394.78z M27.32,478.16c0-88.89,72.32-161.21,161.21-161.21c14.05,0,28.07,1.84,41.64,5.46
		l10.97,2.93l4.89-10.25c37.46-78.54,117.85-129.29,204.81-129.29c114.44,0,211.82,87.25,225.15,200.02
		c-0.74-0.01-1.47-0.06-2.21-0.06c-39.9,0-78.06,17.06-104.7,46.82c-5.03,5.62-4.55,14.26,1.07,19.29
		c5.62,5.04,14.26,4.55,19.29-1.07c21.46-23.97,52.19-37.72,84.34-37.72c61.66,0,111.92,49.59,113.09,110.97
		c-1.17,63.78-53.38,115.32-117.44,115.32h-480.9C99.64,639.37,27.32,567.05,27.32,478.16z"/>
	<path class="st0" d="M697.99,105.49c7.55,0,13.66-6.12,13.66-13.66V13.66c0-7.55-6.12-13.66-13.66-13.66s-13.66,6.12-13.66,13.66
		v78.17C684.33,99.37,690.45,105.49,697.99,105.49z"/>
	<path class="st0" d="M948.12,250.13h-78.17c-7.55,0-13.66,6.12-13.66,13.66s6.12,13.66,13.66,13.66h78.17
		c7.55,0,13.66-6.12,13.66-13.66S955.67,250.13,948.12,250.13z"/>
	<path class="st0" d="M566.74,151.85c2.67,2.67,6.16,4,9.66,4s6.99-1.33,9.66-4c5.34-5.33,5.34-13.98,0-19.32l-55.27-55.27
		c-5.33-5.34-13.99-5.34-19.32,0c-5.34,5.33-5.34,13.98,0,19.32L566.74,151.85z"/>
	<path class="st0" d="M829.25,375.73c-5.33-5.34-13.99-5.34-19.32,0c-5.34,5.33-5.34,13.98,0,19.32l55.27,55.27
		c2.67,2.67,6.16,4,9.66,4s6.99-1.33,9.66-4c5.34-5.33,5.34-13.98,0-19.32L829.25,375.73z"/>
	<path class="st0" d="M819.59,155.86c3.5,0,6.99-1.33,9.66-4l55.27-55.27c5.34-5.33,5.34-13.98,0-19.32
		c-5.33-5.34-13.99-5.34-19.32,0l-55.27,55.27c-5.34,5.33-5.34,13.98,0,19.32C812.6,154.52,816.1,155.86,819.59,155.86z"/>
</g>
</svg>
