<?xml version="1.0" encoding="utf-8"?>
<!-- Generator: Adobe Illustrator 23.0.2, SVG Export Plug-In . SVG Version: 6.00 Build 0)  -->
<svg version="1.1" id="Layer_1" xmlns="http://www.w3.org/2000/svg" xmlns:xlink="http://www.w3.org/1999/xlink" x="0px" y="0px"
	 viewBox="0 0 960 599.19" style="enable-background:new 0 0 960 599.19;" xml:space="preserve">
<style type="text/css">
	.st0{fill:#EDEDED;}
</style>
<path class="st0" d="M828.83,262.34c-8.69-69.98-41.75-134.48-93.92-182.74C679.41,28.27,607.19,0,531.54,0
	c-110.52,0-213,62.04-264.67,159.14c-14.66-2.99-29.6-4.51-44.58-4.51C99.71,154.63,0,254.35,0,376.91s99.71,222.28,222.28,222.28
	h566.98c1.37,0,2.73-0.07,4.1-0.1c0.35,0.02,0.68,0.1,1.03,0.1c91.32,0,165.61-74.29,165.61-165.61c0-0.86-0.05-1.71-0.07-2.56
	c0.01-0.86,0.07-1.7,0.07-2.56C960,348.38,905.55,280.39,828.83,262.34z M32.21,376.91c0-104.8,85.26-190.07,190.07-190.07
	c16.57,0,33.09,2.16,49.1,6.44l12.93,3.45l5.76-12.08c44.16-92.6,138.95-152.44,241.47-152.44c134.92,0,249.74,102.87,265.46,235.82
	c-0.87-0.01-1.74-0.07-2.61-0.07c-47.05,0-92.04,20.12-123.44,55.2c-5.93,6.63-5.37,16.81,1.26,22.75
	c6.63,5.93,16.81,5.37,22.74-1.26c25.3-28.26,61.54-44.47,99.43-44.47c72.7,0,131.96,58.46,133.33,130.83
	c-1.38,75.2-62.94,135.96-138.46,135.96H222.28C117.48,566.98,32.21,481.71,32.21,376.91z"/>
</svg>
