<?xml version="1.0" encoding="utf-8"?>
<!-- Generator: Adobe Illustrator 23.0.2, SVG Export Plug-In . SVG Version: 6.00 Build 0)  -->
<svg version="1.1" id="Layer_1" xmlns="http://www.w3.org/2000/svg" xmlns:xlink="http://www.w3.org/1999/xlink" x="0px" y="0px"
	 viewBox="0 0 960 576" style="enable-background:new 0 0 960 576;" xml:space="preserve">
<style type="text/css">
	.st0{fill:#EDEDED;}
</style>
<g>
	<path class="st0" d="M667.54,304.7c-7-56.36-33.63-108.31-75.65-147.18c-44.7-41.34-102.86-64.11-163.79-64.11
		c-89.01,0-171.55,49.97-213.17,128.17c-11.81-2.41-23.84-3.63-35.91-3.63C80.31,217.95,0,298.26,0,396.97S80.31,576,179.03,576
		h456.65c1.11,0,2.2-0.06,3.3-0.08c0.28,0.02,0.55,0.08,0.83,0.08c73.55,0,133.38-59.84,133.38-133.38c0-0.69-0.04-1.38-0.05-2.07
		c0.01-0.69,0.05-1.37,0.05-2.07C773.19,373.99,729.33,319.24,667.54,304.7z M25.95,396.97c0-84.41,68.67-153.08,153.08-153.08
		c13.35,0,26.65,1.74,39.54,5.18l10.41,2.78l4.64-9.73c35.57-74.58,111.91-122.77,194.49-122.77c108.67,0,201.14,82.85,213.8,189.93
		c-0.7-0.01-1.4-0.05-2.1-0.05c-37.89,0-74.13,16.2-99.42,44.46c-4.78,5.34-4.33,13.54,1.01,18.32s13.54,4.32,18.32-1.01
		c20.37-22.76,49.56-35.82,80.09-35.82c58.55,0,106.28,47.09,107.39,105.38c-1.11,60.57-50.69,109.5-111.52,109.5H179.03
		C94.62,550.05,25.95,481.38,25.95,396.97z"/>
	<path class="st0" d="M854.35,211.29c-7-56.36-33.63-108.31-75.65-147.18C734.01,22.77,675.84,0,614.92,0
		C563.21,0,513.9,16.12,472.33,46.63c-5.78,4.24-7.02,12.36-2.78,18.13s12.35,7.03,18.13,2.78c37.09-27.22,81.09-41.6,127.24-41.6
		c108.67,0,201.14,82.85,213.8,189.93c-0.7-0.01-1.4-0.05-2.1-0.05c-37.89,0-74.13,16.2-99.42,44.46
		c-4.78,5.34-4.33,13.54,1.01,18.32s13.54,4.32,18.32-1.01c20.37-22.76,49.56-35.82,80.09-35.82c59.24,0,107.44,48.2,107.44,107.44
		s-48.2,107.44-107.44,107.44c-7.17,0-12.97,5.81-12.97,12.97c0,7.17,5.81,12.97,12.97,12.97c73.55,0,133.38-59.84,133.38-133.38
		c0-1.11-0.06-2.2-0.08-3.3c0.02-0.28,0.08-0.55,0.08-0.83C960,280.59,916.14,225.83,854.35,211.29z"/>
</g>
</svg>
