<?xml version="1.0" encoding="utf-8"?>
<!-- Generator: Adobe Illustrator 23.0.2, SVG Export Plug-In . SVG Version: 6.00 Build 0)  -->
<svg version="1.1" id="Layer_1" xmlns="http://www.w3.org/2000/svg" xmlns:xlink="http://www.w3.org/1999/xlink" x="0px" y="0px"
	 viewBox="0 0 960 802.15" style="enable-background:new 0 0 960 802.15;" xml:space="preserve">
<style type="text/css">
	.st0{fill:#EDEDED;}
</style>
<g>
	<path class="st0" d="M828.83,262.34c-8.69-69.98-41.75-134.48-93.92-182.74C679.41,28.27,607.19,0,531.54,0
		c-110.52,0-213,62.04-264.68,159.14c-14.66-2.99-29.6-4.51-44.58-4.51C99.71,154.63,0,254.35,0,376.91
		c0,60.76,24.05,117.5,67.74,159.77c3.13,3.03,7.16,4.53,11.2,4.53c4.21,0,8.42-1.64,11.58-4.91c6.18-6.39,6.02-16.59-0.38-22.78
		c-37.35-36.14-57.92-84.65-57.92-136.61c0-104.8,85.27-190.07,190.07-190.07c16.57,0,33.09,2.16,49.1,6.44l12.93,3.45l5.76-12.08
		c44.17-92.6,138.95-152.44,241.48-152.44c134.92,0,249.74,102.87,265.46,235.82c-0.87-0.01-1.74-0.07-2.61-0.07
		c-47.05,0-92.04,20.12-123.44,55.2c-5.93,6.63-5.37,16.81,1.26,22.75s16.81,5.36,22.75-1.26c25.3-28.26,61.54-44.47,99.43-44.47
		c73.56,0,133.4,59.84,133.4,133.4s-59.84,133.4-133.4,133.4c-8.9,0-16.11,7.21-16.11,16.11c0,8.9,7.21,16.11,16.11,16.11
		c91.32,0,165.61-74.29,165.61-165.61c0-1.37-0.07-2.73-0.1-4.1c0.02-0.35,0.1-0.68,0.1-1.03
		C960,348.38,905.55,280.39,828.83,262.34z"/>
	<path class="st0" d="M313.24,452.71c-7.96-3.98-17.63-0.76-21.61,7.2l-57.99,115.97c-3.98,7.96-0.76,17.63,7.2,21.61
		c2.31,1.16,4.77,1.71,7.19,1.71c5.91,0,11.6-3.26,14.42-8.91l57.99-115.97C324.43,466.36,321.2,456.69,313.24,452.71z"/>
	<path class="st0" d="M574.18,452.71c-7.96-3.98-17.63-0.76-21.61,7.2l-57.99,115.97c-3.98,7.96-0.76,17.63,7.2,21.61
		c2.31,1.16,4.77,1.71,7.19,1.71c5.91,0,11.6-3.26,14.42-8.91l57.99-115.97C585.36,466.36,582.14,456.69,574.18,452.71z"/>
	<path class="st0" d="M255.26,655.66c-7.96-3.98-17.63-0.75-21.61,7.2l-57.99,115.97c-3.98,7.96-0.76,17.63,7.2,21.61
		c2.31,1.16,4.77,1.71,7.19,1.71c5.91,0,11.6-3.26,14.42-8.91l57.99-115.97C266.44,669.32,263.21,659.64,255.26,655.66z"/>
	<path class="st0" d="M516.2,655.66c-7.96-3.98-17.63-0.75-21.61,7.2L436.6,778.84c-3.98,7.96-0.76,17.63,7.2,21.61
		c2.31,1.16,4.77,1.71,7.19,1.71c5.91,0,11.6-3.26,14.42-8.91l57.99-115.97C527.38,669.32,524.15,659.64,516.2,655.66z"/>
	<path class="st0" d="M748.14,655.66c-7.96-3.98-17.63-0.75-21.61,7.2l-57.99,115.97c-3.98,7.96-0.76,17.63,7.2,21.61
		c2.31,1.16,4.77,1.71,7.19,1.71c5.91,0,11.6-3.26,14.42-8.91l57.99-115.97C759.32,669.32,756.1,659.64,748.14,655.66z"/>
	<path class="st0" d="M168.28,539.69c-7.96-3.99-17.63-0.75-21.61,7.2L88.68,662.86c-3.98,7.96-0.76,17.63,7.2,21.61
		c2.31,1.16,4.77,1.71,7.19,1.71c5.91,0,11.6-3.26,14.42-8.91l57.99-115.97C179.46,553.34,176.23,543.67,168.28,539.69z"/>
	<path class="st0" d="M429.22,539.69c-7.96-3.99-17.63-0.75-21.61,7.2l-57.99,115.97c-3.98,7.96-0.76,17.63,7.2,21.61
		c2.31,1.16,4.77,1.71,7.19,1.71c5.91,0,11.6-3.26,14.42-8.91l57.99-115.97C440.4,553.34,437.17,543.67,429.22,539.69z"/>
	<path class="st0" d="M690.16,539.69c-7.96-3.99-17.63-0.75-21.61,7.2l-57.99,115.97c-3.98,7.96-0.76,17.63,7.2,21.61
		c2.31,1.16,4.77,1.71,7.19,1.71c5.91,0,11.6-3.26,14.42-8.91l57.99-115.97C701.34,553.34,698.11,543.67,690.16,539.69z"/>
</g>
</svg>
