<?xml version="1.0" encoding="utf-8"?>
<!-- Generator: Adobe Illustrator 23.0.2, SVG Export Plug-In . SVG Version: 6.00 Build 0)  -->
<svg version="1.1" id="Layer_1" xmlns="http://www.w3.org/2000/svg" xmlns:xlink="http://www.w3.org/1999/xlink" x="0px" y="0px"
	 viewBox="0 0 960 731.68" style="enable-background:new 0 0 960 731.68;" xml:space="preserve">
<style type="text/css">
	.st0{fill:#EDEDED;}
</style>
<g>
	<path class="st0" d="M854.35,211.29c-7-56.36-33.63-108.31-75.65-147.18C734.01,22.77,675.84,0,614.92,0
		C563.21,0,513.9,16.12,472.33,46.63c-5.78,4.24-7.02,12.36-2.78,18.13c4.24,5.78,12.36,7.03,18.13,2.78
		c37.09-27.22,81.09-41.6,127.24-41.6c108.67,0,201.14,82.85,213.8,189.93c-0.7-0.01-1.4-0.05-2.1-0.05
		c-37.89,0-74.13,16.2-99.42,44.46c-4.78,5.34-4.33,13.54,1.01,18.32s13.54,4.32,18.32-1.01c20.37-22.76,49.56-35.82,80.09-35.82
		c59.24,0,107.44,48.2,107.44,107.44s-48.2,107.44-107.44,107.44c-7.17,0-12.97,5.81-12.97,12.97c0,7.17,5.81,12.97,12.97,12.97
		c73.55,0,133.38-59.84,133.38-133.38c0-1.11-0.06-2.2-0.08-3.3c0.02-0.28,0.08-0.55,0.08-0.83
		C960,280.59,916.14,225.83,854.35,211.29z"/>
	<path class="st0" d="M667.54,304.7c-7-56.36-33.63-108.31-75.65-147.18c-44.7-41.34-102.86-64.11-163.79-64.11
		c-89.01,0-171.55,49.97-213.17,128.17c-11.81-2.41-23.84-3.63-35.91-3.63C80.31,217.95,0,298.26,0,396.97
		c0,48.94,19.37,94.64,54.55,128.68c2.52,2.44,5.77,3.65,9.02,3.65c3.39,0,6.78-1.32,9.33-3.95c4.98-5.15,4.84-13.36-0.3-18.34
		c-30.08-29.11-46.65-68.18-46.65-110.03c0-84.41,68.67-153.08,153.08-153.08c13.35,0,26.65,1.74,39.54,5.18l10.41,2.78l4.64-9.73
		c35.57-74.58,111.91-122.77,194.49-122.77c108.67,0,201.14,82.85,213.8,189.93c-0.7-0.01-1.4-0.05-2.1-0.05
		c-37.89,0-74.13,16.2-99.42,44.46c-4.78,5.34-4.33,13.54,1.01,18.32s13.54,4.32,18.32-1.01c20.37-22.76,49.56-35.82,80.09-35.82
		c59.24,0,107.44,48.2,107.44,107.44s-48.2,107.44-107.44,107.44c-7.17,0-12.97,5.81-12.97,12.97s5.8,12.96,12.97,12.96
		c73.55,0,133.38-59.84,133.38-133.38c0-1.11-0.06-2.2-0.08-3.3c0.02-0.28,0.08-0.55,0.08-0.83
		C773.19,373.99,729.33,319.24,667.54,304.7z"/>
	<path class="st0" d="M491.6,537.69c3.21-6.41,0.61-14.2-5.8-17.4c-6.41-3.21-14.2-0.61-17.4,5.8l-56.09,112.18h46.7L421.7,712.9
		c-3.21,6.41-0.61,14.2,5.8,17.4c1.86,0.93,3.84,1.37,5.79,1.37c4.76,0,9.34-2.63,11.61-7.17l56.09-112.18h-46.7L491.6,537.69z"/>
	<path class="st0" d="M258.09,537.69c3.21-6.41,0.61-14.2-5.8-17.4c-6.41-3.21-14.2-0.61-17.4,5.8L178.8,638.27h46.7l-37.32,74.63
		c-3.21,6.41-0.61,14.2,5.8,17.4c1.86,0.93,3.84,1.37,5.79,1.37c4.76,0,9.34-2.63,11.61-7.17l56.09-112.18h-46.7L258.09,537.69z"/>
	<path class="st0" d="M182.23,450.24c-6.41-3.21-14.2-0.61-17.4,5.8l-46.7,93.41c-3.21,6.41-0.61,14.2,5.8,17.4
		c1.86,0.93,3.84,1.37,5.79,1.37c4.76,0,9.34-2.63,11.61-7.17l46.7-93.41C191.24,461.23,188.64,453.44,182.23,450.24z"/>
	<path class="st0" d="M392.4,450.24c-6.41-3.21-14.2-0.61-17.4,5.8l-46.7,93.41c-3.21,6.41-0.61,14.2,5.8,17.4
		c1.86,0.93,3.84,1.37,5.79,1.37c4.76,0,9.34-2.63,11.61-7.17l46.7-93.41C401.4,461.23,398.8,453.44,392.4,450.24z"/>
	<path class="st0" d="M602.56,450.24c-6.41-3.21-14.2-0.61-17.4,5.8l-46.7,93.41c-3.21,6.41-0.61,14.2,5.8,17.4
		c1.86,0.93,3.84,1.37,5.79,1.37c4.76,0,9.34-2.63,11.61-7.17l46.7-93.41C611.56,461.23,608.97,453.44,602.56,450.24z"/>
</g>
</svg>
