<?xml version="1.0" encoding="utf-8"?>
<!-- Generator: Adobe Illustrator 23.0.2, SVG Export Plug-In . SVG Version: 6.00 Build 0)  -->
<svg version="1.1" id="Layer_1" xmlns="http://www.w3.org/2000/svg" xmlns:xlink="http://www.w3.org/1999/xlink" x="0px" y="0px"
	 viewBox="0 0 960 609.73" style="enable-background:new 0 0 960 609.73;" xml:space="preserve">
<style type="text/css">
	.st0{fill:#EDEDED;}
</style>
<g>
	<path class="st0" d="M960,345.08c0-64.49-43.86-119.25-105.65-133.79c-7-56.36-33.63-108.31-75.65-147.18
		C734.01,22.77,675.84,0,614.92,0C563.21,0,513.9,16.12,472.33,46.63c-5.78,4.24-7.02,12.36-2.78,18.13
		c4.24,5.78,12.36,7.03,18.13,2.78c37.09-27.22,81.09-41.6,127.24-41.6c108.67,0,201.14,82.85,213.8,189.93
		c-0.7-0.01-1.4-0.05-2.1-0.05c-37.89,0-74.13,16.2-99.42,44.46c-4.78,5.34-4.33,13.54,1.01,18.32s13.54,4.32,18.32-1.01
		c20.37-22.76,49.56-35.82,80.09-35.82c59.24,0,107.44,48.2,107.44,107.44s-48.2,107.44-107.44,107.44
		c-7.17,0-12.97,5.81-12.97,12.97c0,7.17,5.81,12.97,12.97,12.97c73.55,0,133.38-59.84,133.38-133.38c0-1.11-0.06-2.2-0.08-3.3
		C959.93,345.63,960,345.37,960,345.08z"/>
	<path class="st0" d="M667.54,304.7c-7-56.36-33.63-108.31-75.65-147.18c-44.7-41.34-102.86-64.11-163.79-64.11
		c-89.01,0-171.55,49.97-213.17,128.17c-11.81-2.41-23.84-3.63-35.91-3.63C80.31,217.95,0,298.26,0,396.97
		c0,48.94,19.37,94.64,54.55,128.68c2.52,2.44,5.77,3.65,9.02,3.65c3.39,0,6.78-1.32,9.33-3.95c4.98-5.15,4.84-13.36-0.3-18.34
		c-30.08-29.11-46.65-68.18-46.65-110.03c0-84.41,68.67-153.08,153.08-153.08c13.35,0,26.65,1.74,39.54,5.18l10.41,2.78l4.64-9.73
		c35.57-74.58,111.91-122.77,194.49-122.77c108.67,0,201.14,82.85,213.8,189.93c-0.7-0.01-1.4-0.05-2.1-0.05
		c-37.89,0-74.13,16.2-99.42,44.46c-4.78,5.34-4.33,13.54,1.01,18.32s13.54,4.32,18.32-1.01c20.37-22.76,49.56-35.82,80.09-35.82
		c59.24,0,107.44,48.2,107.44,107.44s-48.2,107.44-107.44,107.44c-7.17,0-12.97,5.81-12.97,12.97s5.8,12.96,12.97,12.96
		c73.55,0,133.38-59.84,133.38-133.38c0-1.11-0.06-2.2-0.08-3.3c0.02-0.28,0.08-0.55,0.08-0.83
		C773.19,373.99,729.33,319.24,667.54,304.7z"/>
	<path class="st0" d="M199.78,547.46h-27.91l19.74-19.74c3.04-3.04,3.04-7.97,0-11.01c-3.04-3.04-7.97-3.04-11.01,0l-19.74,19.74
		v-27.91c0-4.3-3.48-7.78-7.78-7.78s-7.78,3.48-7.78,7.78v27.91l-19.74-19.74c-3.04-3.04-7.97-3.04-11.01,0s-3.04,7.97,0,11.01
		l19.74,19.74h-27.91c-4.3,0-7.78,3.48-7.78,7.78c0,4.3,3.48,7.78,7.78,7.78h27.91l-19.74,19.74c-3.04,3.04-3.04,7.97,0,11.01
		c1.52,1.52,3.51,2.28,5.5,2.28s3.98-0.76,5.5-2.28l19.74-19.74v27.91c0,4.3,3.48,7.78,7.78,7.78s7.78-3.48,7.78-7.78v-27.91
		l19.74,19.74c1.52,1.52,3.51,2.28,5.5,2.28s3.98-0.76,5.5-2.28c3.04-3.04,3.04-7.97,0-11.01l-19.74-19.74h27.91
		c4.3,0,7.78-3.48,7.78-7.78C207.57,550.94,204.08,547.46,199.78,547.46z"/>
	<path class="st0" d="M339.89,500.76h-27.91l19.74-19.74c3.04-3.04,3.04-7.97,0-11.01s-7.97-3.04-11.01,0l-19.74,19.74v-27.91
		c0-4.3-3.48-7.78-7.78-7.78s-7.78,3.48-7.78,7.78v27.91l-19.74-19.74c-3.04-3.04-7.97-3.04-11.01,0s-3.04,7.97,0,11.01l19.74,19.74
		h-27.91c-4.3,0-7.78,3.48-7.78,7.78c0,4.3,3.48,7.78,7.78,7.78h27.91l-19.74,19.74c-3.04,3.04-3.04,7.97,0,11.01
		c1.52,1.52,3.51,2.28,5.5,2.28s3.98-0.76,5.5-2.28l19.74-19.74v27.91c0,4.3,3.48,7.78,7.78,7.78s7.78-3.48,7.78-7.78v-27.91
		l19.74,19.74c1.52,1.52,3.51,2.28,5.5,2.28s3.98-0.76,5.5-2.28c3.04-3.04,3.04-7.97,0-11.01l-19.74-19.74h27.91
		c4.3,0,7.78-3.48,7.78-7.78C347.68,504.24,344.19,500.76,339.89,500.76z"/>
	<path class="st0" d="M480,547.46h-27.91l19.74-19.74c3.04-3.04,3.04-7.97,0-11.01c-3.04-3.04-7.97-3.04-11.01,0l-19.74,19.74
		v-27.91c0-4.3-3.48-7.78-7.78-7.78s-7.78,3.48-7.78,7.78v27.91l-19.74-19.74c-3.04-3.04-7.97-3.04-11.01,0s-3.04,7.97,0,11.01
		l19.74,19.74H386.6c-4.3,0-7.78,3.48-7.78,7.78c0,4.3,3.48,7.78,7.78,7.78h27.91l-19.74,19.74c-3.04,3.04-3.04,7.97,0,11.01
		c1.52,1.52,3.51,2.28,5.5,2.28s3.98-0.76,5.5-2.28l19.74-19.74v27.91c0,4.3,3.48,7.78,7.78,7.78s7.78-3.48,7.78-7.78v-27.91
		l19.74,19.74c1.52,1.52,3.51,2.28,5.5,2.28s3.98-0.76,5.5-2.28c3.04-3.04,3.04-7.97,0-11.01l-19.74-19.74H480
		c4.3,0,7.78-3.48,7.78-7.78S484.3,547.46,480,547.46z"/>
	<path class="st0" d="M620.11,500.76H592.2l19.74-19.74c3.04-3.04,3.04-7.97,0-11.01s-7.97-3.04-11.01,0l-19.74,19.74v-27.91
		c0-4.3-3.48-7.78-7.78-7.78c-4.3,0-7.78,3.48-7.78,7.78v27.91l-19.74-19.74c-3.04-3.04-7.97-3.04-11.01,0
		c-3.04,3.04-3.04,7.97,0,11.01l19.74,19.74H526.7c-4.3,0-7.78,3.48-7.78,7.78c0,4.3,3.48,7.78,7.78,7.78h27.91l-19.74,19.74
		c-3.04,3.04-3.04,7.97,0,11.01c1.52,1.52,3.51,2.28,5.5,2.28s3.98-0.76,5.5-2.28l19.74-19.74v27.91c0,4.3,3.48,7.78,7.78,7.78
		c4.3,0,7.78-3.48,7.78-7.78v-27.91l19.74,19.74c1.52,1.52,3.51,2.28,5.5,2.28s3.98-0.76,5.5-2.28c3.04-3.04,3.04-7.97,0-11.01
		l-19.74-19.74h27.91c4.3,0,7.78-3.48,7.78-7.78C627.89,504.24,624.41,500.76,620.11,500.76z"/>
</g>
</svg>
