<?xml version="1.0" encoding="utf-8"?>
<!-- Generator: Adobe Illustrator 23.0.2, SVG Export Plug-In . SVG Version: 6.00 Build 0)  -->
<svg version="1.1" id="Layer_1" xmlns="http://www.w3.org/2000/svg" xmlns:xlink="http://www.w3.org/1999/xlink" x="0px" y="0px"
	 viewBox="0 0 960 609.73" style="enable-background:new 0 0 960 609.73;" xml:space="preserve">
<style type="text/css">
	.st0{fill:#EDEDED;}
</style>
<g>
	<path class="st0" d="M941.22,491.75l-93.4,46.7c-54.85,27.43-120.35,27.43-175.21,0c-62.12-31.06-136.29-31.06-198.41,0
		c-54.85,27.43-120.35,27.43-175.21,0c-62.12-31.06-136.29-31.06-198.41,0l-93.4,46.7c-6.41,3.2-9.01,11-5.8,17.4
		c2.27,4.55,6.85,7.17,11.61,7.17c1.95,0,3.93-0.44,5.79-1.37l93.4-46.7c54.85-27.43,120.35-27.43,175.21,0
		c62.12,31.06,136.29,31.06,198.41,0c54.85-27.43,120.35-27.43,175.21,0c62.12,31.06,136.29,31.06,198.41,0l93.4-46.7
		c6.41-3.2,9.01-11,5.8-17.4C955.42,491.14,947.64,488.54,941.22,491.75z"/>
	<path class="st0" d="M941.22,421.7l-93.4,46.7c-54.85,27.43-120.35,27.43-175.21,0c-62.12-31.06-136.29-31.06-198.41,0
		c-54.85,27.43-120.35,27.43-175.21,0c-62.12-31.06-136.29-31.06-198.41,0l-93.4,46.7c-6.41,3.2-9.01,11-5.8,17.4
		c2.27,4.55,6.85,7.17,11.61,7.17c1.95,0,3.93-0.44,5.79-1.37l93.4-46.7c54.85-27.43,120.35-27.43,175.21,0
		c62.12,31.06,136.29,31.06,198.41,0c54.85-27.43,120.35-27.43,175.21,0c62.12,31.06,136.29,31.06,198.41,0l93.4-46.7
		c6.41-3.2,9.01-11,5.8-17.4C955.42,421.09,947.64,418.49,941.22,421.7z"/>
	<path class="st0" d="M941.22,351.64l-93.4,46.7c-54.85,27.43-120.35,27.43-175.21,0c-62.12-31.06-136.29-31.06-198.41,0
		c-54.85,27.43-120.35,27.43-175.21,0c-62.12-31.06-136.29-31.06-198.41,0l-93.4,46.7c-6.41,3.2-9.01,11-5.8,17.4
		c2.27,4.55,6.85,7.17,11.61,7.17c1.95,0,3.93-0.44,5.79-1.37l93.4-46.7c54.85-27.43,120.35-27.43,175.21,0
		c62.12,31.06,136.29,31.06,198.41,0c54.85-27.43,120.35-27.43,175.21,0c62.12,31.06,136.29,31.06,198.41,0l93.4-46.7
		c6.41-3.2,9.01-11,5.8-17.4C955.42,351.04,947.64,348.44,941.22,351.64z"/>
	<path class="st0" d="M941.22,281.59l-93.4,46.7c-54.85,27.43-120.35,27.43-175.21,0c-62.12-31.06-136.29-31.06-198.41,0
		c-54.85,27.43-120.35,27.43-175.21,0c-62.12-31.06-136.29-31.06-198.41,0L7.17,375c-6.41,3.2-9.01,11-5.8,17.4
		c2.27,4.55,6.85,7.17,11.61,7.17c1.95,0,3.93-0.44,5.79-1.37l93.4-46.7c54.85-27.43,120.35-27.43,175.21,0
		c62.12,31.06,136.29,31.06,198.41,0c54.85-27.43,120.35-27.43,175.21,0c62.12,31.06,136.29,31.06,198.41,0l93.4-46.7
		c6.41-3.2,9.01-11,5.8-17.4C955.42,280.99,947.64,278.38,941.22,281.59z"/>
	<path class="st0" d="M941.22,211.54l-93.4,46.7c-54.85,27.43-120.35,27.43-175.21,0c-62.12-31.06-136.29-31.06-198.41,0
		c-54.85,27.43-120.35,27.43-175.21,0c-62.12-31.06-136.29-31.06-198.41,0l-93.4,46.7c-6.41,3.2-9.01,11-5.8,17.4
		c2.27,4.55,6.85,7.17,11.61,7.17c1.95,0,3.93-0.44,5.79-1.37l93.4-46.7c54.85-27.43,120.35-27.43,175.21,0
		c62.12,31.06,136.29,31.06,198.41,0c54.85-27.43,120.35-27.43,175.21,0c62.12,31.06,136.29,31.06,198.41,0l93.4-46.7
		c6.41-3.2,9.01-11,5.8-17.4C955.42,210.93,947.64,208.33,941.22,211.54z"/>
	<path class="st0" d="M941.22,141.48l-93.4,46.7c-54.85,27.43-120.35,27.43-175.21,0c-62.12-31.06-136.29-31.06-198.41,0
		c-54.85,27.43-120.35,27.43-175.21,0c-62.12-31.06-136.29-31.06-198.41,0l-93.4,46.7c-6.41,3.2-9.01,11-5.8,17.4
		c2.27,4.55,6.85,7.17,11.61,7.17c1.95,0,3.93-0.44,5.79-1.37l93.4-46.7c54.85-27.43,120.35-27.43,175.21,0
		c62.12,31.06,136.29,31.06,198.41,0c54.85-27.43,120.35-27.43,175.21,0c62.12,31.06,136.29,31.06,198.41,0l93.4-46.7
		c6.41-3.2,9.01-11,5.8-17.4C955.42,140.88,947.64,138.27,941.22,141.48z"/>
	<path class="st0" d="M941.22,71.43l-93.4,46.7c-54.85,27.43-120.35,27.43-175.21,0c-62.12-31.06-136.29-31.06-198.41,0
		c-54.85,27.43-120.35,27.43-175.21,0c-62.12-31.06-136.29-31.06-198.41,0l-93.4,46.7c-6.41,3.2-9.01,11-5.8,17.4
		c2.27,4.55,6.85,7.17,11.61,7.17c1.95,0,3.93-0.44,5.79-1.37l93.4-46.7c54.85-27.43,120.35-27.43,175.21,0
		c62.12,31.06,136.29,31.06,198.41,0c54.85-27.43,120.35-27.43,175.21,0c62.12,31.06,136.29,31.06,198.41,0l93.4-46.7
		c6.41-3.2,9.01-11,5.8-17.4C955.42,70.82,947.64,68.22,941.22,71.43z"/>
	<path class="st0" d="M941.22,1.38l-93.4,46.7c-54.85,27.43-120.35,27.43-175.21,0c-62.12-31.06-136.29-31.06-198.41,0
		c-54.85,27.43-120.35,27.43-175.21,0c-62.12-31.06-136.29-31.06-198.41,0l-93.4,46.7c-6.41,3.2-9.01,11-5.8,17.4
		c2.27,4.55,6.85,7.17,11.61,7.17c1.95,0,3.93-0.44,5.79-1.37l93.4-46.7c54.85-27.43,120.35-27.43,175.21,0
		c62.12,31.06,136.29,31.06,198.41,0c54.85-27.43,120.35-27.43,175.21,0c62.12,31.06,136.29,31.06,198.41,0l93.4-46.7
		c6.41-3.2,9.01-11,5.8-17.4C955.42,0.77,947.64-1.84,941.22,1.38z"/>
</g>
</svg>
